<?xml version="1.0" encoding="UTF-8"?>
<svg width="6199px" height="1285px" viewBox="0 0 6199 1285" version="1.1" xmlns="http://www.w3.org/2000/svg" xmlns:xlink="http://www.w3.org/1999/xlink">
    <!-- Generator: Sketch 51.2 (57519) - http://www.bohemiancoding.com/sketch -->
    <title>Artboard</title>
    <desc>Created with Sketch.</desc>
    <defs></defs>
    <g id="Artboard" stroke="none" stroke-width="1" fill="none" fill-rule="evenodd">
        <g id="accident" transform="translate(5278.000000, 951.000000)" fill-rule="nonzero">
            <path d="M56,175.61876 L56,208.381239 C56,215.889906 49.7672356,222 42.2015713,222 L40.7932889,222 C33.2070657,222 27,215.874686 27,208.381239 L27,175.61876 C27,168.125313 33.2070657,162 40.7932889,162 L42.2015713,162 C44.4082234,162 46.5018019,162.51918 48.3572396,163.442543 C52.878478,165.681614 56,170.310268 56,175.61876 Z" id="Shape" fill="#4E5A61"></path>
            <path d="M193,175.618102 L193,208.378998 C193,213.692308 189.878478,218.317355 185.35724,220.554627 C182.191174,222.132386 179.624742,221.997101 177.798428,221.997101 C170.212205,221.997101 164,215.872083 164,208.378998 L164,175.618102 C164,168.125017 170.212205,162 177.798428,162 L179.206711,162 C181.413363,162 183.501802,162.519155 185.35724,163.442474 C189.878478,165.681436 193,170.304793 193,175.618102 Z" id="Shape" fill="#4E5A61"></path>
            <path d="M55,175.151719 L55,207.848281 C55,213.147781 51.9374718,217.767122 47.5016805,220 C43.0625278,217.770497 40,213.151156 40,207.848281 L40,175.151719 C40,169.848844 43.0625278,165.229503 47.5016805,163 C51.9374718,165.234566 55,169.853907 55,175.151719 Z" id="Shape" fill="#5F6C75"></path>
            <path d="M192,175.151719 L192,207.848281 C192,213.151156 188.937472,217.767122 184.501681,220 C180.062528,217.767122 177,213.151156 177,207.848281 L177,175.151719 C177,169.848844 180.062528,165.234566 184.501681,163 C188.937472,165.234566 192,169.848844 192,175.151719 Z" id="Shape" fill="#5F6C75"></path>
            <polygon id="Shape" fill="#A2ABB8" points="27 201 56 201 56 208 27 208"></polygon>
            <polygon id="Shape" fill="#A2ABB8" points="164 201 193 201 193 208 164 208"></polygon>
            <g id="Group" transform="translate(1.000000, 51.000000)" fill="#4E5A61">
                <path d="M10.9246988,66.7543741 L40.9218749,66.7543741 C46.7535769,66.7543741 51.5246613,61.9841476 51.5246613,56.153494 C51.5246613,50.3228409 46.7535769,45.5526144 40.9218749,45.5526144 L10.9246988,45.5526144 C5.0929972,45.5526144 0.321912867,50.3228409 0.321912867,56.153494 C0.321912867,61.9841476 5.0929972,66.7543741 10.9246988,66.7543741 Z" id="Shape"></path>
                <path d="M175.256024,66.7543741 L205.254894,66.7543741 C211.086596,66.7543741 215.857681,61.9841476 215.857681,56.153494 C215.857681,50.3228409 211.086596,45.5526144 205.254894,45.5526144 L175.256024,45.5526144 C169.426017,45.5526144 164.654932,50.3228409 164.654932,56.153494 C164.654932,61.9841476 169.426017,66.7543741 175.256024,66.7543741 Z" id="Shape"></path>
                <path d="M144.182982,0.338794498 L72.0796311,0.338794498 C59.9841867,0.338794498 49.1137048,7.7228207 44.6594504,18.965716 L23.6351659,72.0277104 L192.625753,72.0277104 L171.603163,18.965716 C167.147214,7.7228207 156.278426,0.338794498 144.182982,0.338794498 Z" id="Shape"></path>
                <path d="M208.238517,94.2983668 L208.238517,133.681533 L8.36125764,133.681533 L8.36125764,94.2983668 C8.36125764,77.5382028 21.9527484,63.9457675 38.7210093,63.9457675 L177.878765,63.9457675 C194.647025,63.9457675 208.238517,77.5382028 208.238517,94.2983668 Z" id="Shape"></path>
            </g>
            <path d="M210,145.467608 L210,185 L23,185 L23,145.467608 C23,128.643938 36.6412445,115 53.4708873,115 L179.529113,115 C196.358755,115 210,128.643938 210,145.467608 Z" id="Shape" fill="#5F6C75"></path>
            <path d="M219,173.845065 L219,182.154935 C219,184.27072 217.239588,186 215.085713,186 L3.91428793,186 C1.76041221,186 0,184.27072 0,182.154935 L0,173.845065 C0,171.729279 1.76041221,170 3.91428793,170 L215.085713,170 C217.239588,170 219,171.729279 219,173.845065 Z" id="Shape" fill="#909BA6"></path>
            <path d="M219,173.879807 L219,178 L10.9149271,178 C8.75976595,178 7,176.256777 7,174.121875 L7,170 L215.083376,170 C217.238538,170 219,171.744904 219,173.879807 Z" id="Shape" fill="#A2ABB8"></path>
            <polygon id="Shape" fill="#7E8B96" points="27 201 41 201 41 208 27 208"></polygon>
            <polygon id="Shape" fill="#7E8B96" points="164 201 178 201 178 208 164 208"></polygon>
            <path d="M60,147.5 C60,152.449904 57.1220694,156.726759 52.9542665,158.749319 C51.3031625,159.550164 49.4544031,160 47.5,160 C40.5939887,160 35,154.404308 35,147.5 C35,140.595692 40.5939887,135 47.5,135 C49.4544031,135 51.3031625,135.449836 52.9542665,136.248978 C57.1220694,138.273241 60,142.550096 60,147.5 Z" id="Shape" fill="#FFA90B"></path>
            <path d="M184,147.5 C184,152.449904 181.122265,156.726759 176.954747,158.749319 C175.303755,159.550164 173.455122,160 171.499148,160 C164.595311,160 159,154.404308 159,147.5 C159,140.595692 164.595311,135 171.499148,135 C173.455122,135 175.303755,135.449836 176.954747,136.248978 C181.122265,138.273241 184,142.550096 184,147.5 Z" id="Shape" fill="#FFA90B"></path>
            <path d="M59,147.000833 C59,151.840666 56.1407499,156.022416 52,158 C47.8575574,156.022416 45,151.840666 45,147.000833 C45,142.160999 47.8575574,137.97925 52,136 C56.1407499,137.97925 59,142.160999 59,147.000833 Z" id="Shape" fill="#FFC14F"></path>
            <path d="M184,147.000833 C184,151.840666 181.140749,156.022416 177,158 C172.857557,156.022416 170,151.840666 170,147.000833 C170,142.160999 172.857557,137.97925 177,136 C181.140749,137.97925 184,142.160999 184,147.000833 Z" id="Shape" fill="#FFC14F"></path>
            <path d="M143,165.92039 L143,190.079609 C143,192.799744 140.783526,195 138.04543,195 L79.9545704,195 C77.2164738,195 75,192.799744 75,190.079609 L75,165.92039 C75,163.200256 77.2164738,161 79.9545704,161 L138.04543,161 C140.783526,161 143,163.200256 143,165.92039 Z" id="Shape" fill="#C2EAF2"></path>
            <path d="M144,165.914181 L144,182 L94.9908964,182 C92.2317845,182 90,179.800845 90,177.084144 L90,161 L139.007403,161 C141.766515,161 144,163.19748 144,165.914181 Z" id="Shape" fill="#DEF4F8"></path>
            <path d="M163.810224,105 L55.1894286,105 C50.8229088,105 47.8348428,100.589311 49.4393562,96.5245251 L55.2625157,81.8008555 C58.8573735,72.7095041 66.3887277,65.9888558 75.4345119,63.2975591 C78.2764042,62.4505181 81.2746686,62 84.3392212,62 L134.660431,62 C147.48634,62 159.01368,69.8511614 163.737137,81.8008555 L168.103656,92.8478259 L169.558597,96.5245251 C171.168209,100.589311 168.176744,105 163.810224,105 Z" id="Shape" fill="#C2EAF2"></path>
            <path d="M168,93 L72.1687551,93 C67.8161776,93 64.8376529,88.5658574 66.438737,84.4827155 L72.2416088,69.6864128 C73.1361828,67.4023628 74.2798141,65.2658355 75.6267581,63.3039601 C78.4595759,62.4527405 81.4482665,62 84.5030336,62 L134.663562,62 C147.448517,62 158.939049,69.8898916 163.647423,81.8985343 L168,93 Z" id="Shape" fill="#DEF4F8"></path>
            <path d="M217.219523,73.5742838 L197.245622,79.4768588 C193.693724,80.529321 192.298457,84.8320852 194.560455,87.781683 L207.255515,104.333895 C210.46242,108.513336 206.264723,114.314551 201.30906,112.545805 L181.698846,105.543466 C178.208129,104.296729 174.557662,106.957449 174.65963,110.67401 L174.936644,120.688453 L175.235751,131.554326 C175.381906,136.825085 168.585715,139.039818 165.615037,134.689752 L153.849588,117.458423 C151.754138,114.390571 147.242038,114.390571 145.149987,117.458423 L133.381139,134.689752 C130.410461,139.039818 123.619369,136.825085 123.763824,131.554326 L124.339945,110.67401 C124.441913,106.957449 120.793146,104.296729 117.300729,105.543466 L97.6871156,112.545805 C92.7348526,114.314551 88.5337562,108.513336 91.7406607,104.333895 L104.43912,87.781683 C106.701118,84.8320852 105.305852,80.529321 101.750555,79.4768588 L81.7817516,73.5742838 C76.7394161,72.0859702 76.7394161,64.9180752 81.7817516,63.4297616 L101.750555,57.5221185 C105.305852,56.4747244 106.701118,52.1668921 104.43912,49.222362 L91.7406607,32.6701506 C88.5337562,28.4890193 92.7348526,22.6894948 97.6871156,24.4582401 L112.725749,29.8269813 L117.300729,31.460579 C120.793146,32.707316 124.443613,30.0465961 124.339945,26.330035 L123.763824,5.44802992 C123.619369,0.173892101 130.410461,-2.04084054 133.382839,2.31260385 L145.149987,19.5439325 C147.242038,22.6117847 151.754138,22.6117847 153.849588,19.5439325 L165.615037,2.31260385 C168.585715,-2.04084054 175.381906,0.173892101 175.235751,5.44802992 L174.65963,26.330035 C174.557662,30.0465961 178.208129,32.707316 181.698846,31.460579 L201.30906,24.4582401 C206.266422,22.6894948 210.46242,28.4907086 207.255515,32.6701506 L194.560455,49.222362 C192.298457,52.1668921 193.695423,56.4747244 197.245622,57.5221185 L217.219523,63.4297616 C222.260159,64.9180752 222.260159,72.0859702 217.219523,73.5742838 Z" id="Shape" fill="#F44545"></path>
            <path d="M216.238615,73.7642098 L196.365586,79.6820217 C192.831626,80.7372008 191.443405,85.0510722 193.69398,88.0082842 L206.324928,104.603224 C209.515637,108.793455 205.339139,114.609644 200.408504,112.836333 L180.897325,105.815918 C177.424237,104.565962 173.792205,107.233551 173.893658,110.959706 L174.169273,121 C137.941956,116.29827 110,86.2807036 110,49.9540791 C110,43.3808025 110.781191,36.6161376 112.270865,29.9039772 L116.824431,31.5417918 C120.29921,32.7917473 123.929551,30.1258529 123.828098,26.3980038 L123.254886,5.46209356 C123.11116,0.174340989 129.867957,-2.0461088 132.823632,2.31857364 L144.533045,19.5960771 C146.614531,22.6718487 151.103844,22.6718487 153.188711,19.5960771 L164.894742,2.31857364 C167.850418,-2.0461088 174.612286,0.174340989 174.46687,5.46209356 L173.893658,26.3980038 C173.792205,30.1241589 177.424237,32.7917473 180.897325,31.5417918 L200.408504,24.5213771 C205.34083,22.7480659 209.515637,28.564255 206.324928,32.7544859 L193.69398,49.3494254 C191.443405,52.3015566 192.833317,56.6205093 196.365586,57.6706071 L216.238615,63.5935003 C221.253795,65.0856559 221.253795,72.2720542 216.238615,73.7642098 Z" id="Shape" fill="#FB5858"></path>
            <path d="M159,39.586202 L159,79.413798 C159,82.4491734 157.601527,85.1559856 155.420314,86.9043482 C153.797478,88.2168966 151.737725,89 149.500843,89 C144.254462,89 140,84.7065526 140,79.413798 L140,39.586202 C140,34.2917451 144.254462,30 149.500843,30 C150.860517,30 152.157773,30.2894078 153.326822,30.8120436 C154.409838,31.2904177 155.389949,31.9747814 156.214863,32.8089565 C157.937228,34.540295 159,36.9389733 159,39.586202 Z" id="Shape" fill="#FFC14F"></path>
            <path d="M156,101.500818 C156,102.901447 155.559627,104.202266 154.798388,105.262555 C154.300718,105.966143 153.658985,106.568282 152.920665,107.026432 C151.930235,107.641662 150.754817,108 149.502456,108 C145.912354,108 143,105.087476 143,101.500818 C143,97.9125236 145.912354,95 149.502456,95 C150.754817,95 151.930235,95.3534298 152.920665,95.9735684 C153.179322,96.1355572 153.428158,96.3106355 153.658985,96.5069854 C155.08815,97.6932664 156,99.491504 156,101.500818 Z" id="Shape" fill="#FFC14F"></path>
            <path d="M156,101.500814 C156,102.894744 155.570859,104.189341 154.829035,105.244559 C154.344057,105.944782 153.718692,106.544041 152.999202,107 C151.199681,105.861732 150,103.824574 150,101.500814 C150,99.1754254 151.199681,97.138268 152.999202,96 C153.251263,96.161214 153.493752,96.335455 153.718692,96.5308658 C155.111406,97.7114731 156,99.50111 156,101.500814 Z" id="Shape" fill="#FFCD71"></path>
            <path d="M159,39.7597197 L159,79.5217761 C159,82.5521565 157.639993,85.2545145 155.518775,87 C152.270507,85.5196515 150,82.1544507 150,78.2402803 L150,38.4782239 C150,35.4478439 151.360007,32.7454855 153.482865,31 C154.536092,31.4775869 155.489245,32.1608244 156.291469,32.9936268 C157.96646,34.7221162 159,37.1168473 159,39.7597197 Z" id="Shape" fill="#FFCD71"></path>
        </g>
    </g>
</svg>