<?xml version="1.0" encoding="UTF-8"?>
<svg width="6199px" height="1285px" viewBox="0 0 6199 1285" version="1.1" xmlns="http://www.w3.org/2000/svg" xmlns:xlink="http://www.w3.org/1999/xlink">
    <!-- Generator: Sketch 51.2 (57519) - http://www.bohemiancoding.com/sketch -->
    <title>Artboard</title>
    <desc>Created with Sketch.</desc>
    <defs></defs>
    <g id="Artboard" stroke="none" stroke-width="1" fill="none" fill-rule="evenodd">
        <g id="ambulance" transform="translate(5880.500000, 1326.500000) scale(-1, 1) translate(-5880.500000, -1326.500000) translate(5609.000000, 1128.000000)" fill-rule="nonzero">
            <path d="M63.588588,18 L25.2240257,18 C11.2917414,18 0,28.6584091 0,41.8005213 L0,306.199479 C0,319.345502 11.2917414,330 25.2240257,330 L87.1047585,330 C91.5899515,301.541069 117.589145,279.707953 149.002073,279.707953 C180.410855,279.707953 206.410048,301.541069 210.899386,330 L298,330 L298,41.8005213 C298,28.6584091 286.708259,18 272.775974,18 L63.588588,18 Z" id="Shape" fill="#FFFFFF"></path>
            <path d="M272.733804,18 L225,18 C238.955577,18 250.266196,28.654498 250.266196,41.8005213 L250.266196,330 L298,330 L298,41.8005213 C298,28.6584091 286.689381,18 272.733804,18 Z" id="Shape" fill="#E8E8E8"></path>
            <path d="M533.892655,165.856168 C539.758613,172.042901 543,180.049721 543,188.349473 L543,305.233416 C543,318.356789 531.723451,329 517.809912,329 L472.873443,329 C468.390146,300.581649 442.425933,278.779665 411.059409,278.779665 C379.688746,278.779665 353.724533,300.581649 349.245375,329 L298,329 L298,77 L433.662184,77 C443.837572,77 453.532754,81.0893369 460.317727,88.2446996 L533.892655,165.856168 Z" id="Shape" fill="#FFFFFF"></path>
            <path d="M533.880641,165.856168 L498.095449,128.157719 L474.957148,103.781835 L460.208658,88.2446996 C453.414736,81.0893369 443.710909,77 433.522098,77 L392,77 C402.188811,77 411.896783,81.0893369 418.686559,88.2446996 L433.43505,103.781835 L456.577496,128.157719 L492.362688,165.856168 C498.232239,172.042901 501.477902,180.049721 501.477902,188.349473 L501.477902,305.233416 C501.477902,318.356789 490.186478,329 476.254584,329 L517.776683,329 C531.704431,329 543,318.360694 543,305.233416 L543,188.349473 C543,180.049721 539.754337,172.042901 533.880641,165.856168 Z" id="Shape" fill="#E8E8E8"></path>
            <path d="M442.866749,203 L367.133251,203 C360.433478,203 355,197.874961 355,191.555511 L355,126.444489 C355,120.125039 360.433478,115 367.133251,115 L406.189738,115 C409.723774,115 413.084006,116.455932 415.388992,118.981371 L452.066005,159.20102 C453.957169,161.277578 455,163.924018 455,166.664139 L455,191.555511 C455,197.874961 449.566522,203 442.866749,203 Z" id="Shape" fill="#5B9ED6"></path>
            <path d="M419.995857,77 L337,77 L337,64.3444173 C337,59.1813095 341.503395,55 347.0591,55 L409.945044,55 C415.496605,55 420,59.1813095 420,64.3444173 L420,77 L419.995857,77 Z" id="Shape" fill="#8A8A8A"></path>
            <path d="M411,55 L347,55 L347,29.3612257 C347,13.1458833 360.906928,0 378.061013,0 L379.938987,0 C397.093072,0 411,13.1458833 411,29.3612257 L411,55 Z" id="Shape" fill="#EF2D57"></path>
            <path d="M379.134806,0 C374.838606,0 370.740123,0.813366516 367,2.27586258 C378.57873,6.80803391 386.730387,17.6242449 386.730387,30.2509777 L386.730387,55 L411,55 L411,30.2509777 C411,13.5456808 396.73563,0 379.134806,0 Z" id="Shape" fill="#C72549"></path>
            <path d="M204.242512,114.226357 L171.088795,114.226357 L171.088795,83.0047196 C171.088795,76.3740241 165.377352,71 158.335452,71 L138.660405,71 C131.614359,71 125.907062,76.3740241 125.907062,83.0047196 L125.907062,114.226357 L92.7491993,114.226357 C85.7072979,114.226357 80,119.604284 80,126.234979 L80,144.761118 C80,151.391813 85.7072979,156.769741 92.7491993,156.769741 L125.907062,156.769741 L125.907062,187.991378 C125.907062,194.622073 131.618503,200 138.660405,200 L158.335452,200 C165.377352,200 171.088795,194.622073 171.088795,187.991378 L171.088795,156.769741 L204.246657,156.769741 C211.288559,156.769741 217,151.391813 217,144.761118 L217,126.234979 C216.995856,119.604284 211.288559,114.226357 204.242512,114.226357 Z" id="Shape" fill="#EF2D57"></path>
        </g>
    </g>
</svg>