<?xml version="1.0" encoding="UTF-8"?>
<svg width="2397px" height="763px" viewBox="0 0 2397 763" version="1.1" xmlns="http://www.w3.org/2000/svg" xmlns:xlink="http://www.w3.org/1999/xlink">
    <!-- Generator: Sketch 51.2 (57519) - http://www.bohemiancoding.com/sketch -->
    <title>Group 30</title>
    <desc>Created with Sketch.</desc>
    <defs></defs>
    <g id="Page-1" stroke="none" stroke-width="1" fill="none" fill-rule="evenodd">
        <g id="Artboard" transform="translate(0.000000, -522.000000)" fill="#C7DEF2" fill-rule="nonzero">
            <g id="Group-30" transform="translate(0.000000, 522.000000)">
                <g id="buildings-bg" transform="translate(0.000000, 2.000000)">
                    <polygon id="Shape" points="560.203 134.116 560.203 84.169 552.834 84.169 552.834 74.81 548.698 74.81 548.698 84.169 531.785 84.169 531.785 65.141 529.485 65.141 529.485 84.169 527.448 84.169 527.448 65.141 525.148 65.141 525.148 84.169 515.369 84.169 515.369 121.759 461.693 121.759 461.693 91.981 437.254 80.99 429.1 80.99 429.1 59.414 397.528 48.418 376.146 62.162 376.146 76.866 365.957 76.866 356.79 87.862 356.79 105.592 320.889 105.592 320.889 79.47 317.925 79.47 317.925 105.592 311.858 105.592 311.858 67.518 308.893 67.518 308.893 105.592 299.189 105.592 299.189 136.926 288.316 136.926 288.316 120.325 288.314 120.325 262.957 98.285 237.598 120.325 237.598 136.926 226.722 136.926 226.722 43.697 222.943 43.697 222.943 30.456 202.191 24.991 181.44 30.456 181.44 43.697 177.659 43.697 177.659 82.171 170.062 82.171 170.062 71.259 161.066 71.259 161.066 60.442 117.894 60.442 117.894 71.259 108.899 71.259 108.899 82.171 101.302 82.171 101.302 145.233 57.638 145.233 57.638 26.067 28.856 0 0 26.067 0 790 57.638 790 101.302 790 177.659 790 226.722 790 233.866 790 248.239 790 255.77 790 270.144 790 277.672 790 292.048 790 299.189 790 356.79 790 358.785 790 461.676 790 461.693 790 515.369 790 559.199 790 560.203 790 600 790 600 160.896"></polygon>
                </g>
                <g id="buildings-bg" transform="translate(599.000000, 0.000000)">
                    <polygon id="Shape" points="560.203 134.116 560.203 84.169 552.834 84.169 552.834 74.81 548.698 74.81 548.698 84.169 531.785 84.169 531.785 65.141 529.485 65.141 529.485 84.169 527.448 84.169 527.448 65.141 525.148 65.141 525.148 84.169 515.369 84.169 515.369 121.759 461.693 121.759 461.693 91.981 437.254 80.99 429.1 80.99 429.1 59.414 397.528 48.418 376.146 62.162 376.146 76.866 365.957 76.866 356.79 87.862 356.79 105.592 320.889 105.592 320.889 79.47 317.925 79.47 317.925 105.592 311.858 105.592 311.858 67.518 308.893 67.518 308.893 105.592 299.189 105.592 299.189 136.926 288.316 136.926 288.316 120.325 288.314 120.325 262.957 98.285 237.598 120.325 237.598 136.926 226.722 136.926 226.722 43.697 222.943 43.697 222.943 30.456 202.191 24.991 181.44 30.456 181.44 43.697 177.659 43.697 177.659 82.171 170.062 82.171 170.062 71.259 161.066 71.259 161.066 60.442 117.894 60.442 117.894 71.259 108.899 71.259 108.899 82.171 101.302 82.171 101.302 145.233 57.638 145.233 57.638 26.067 28.856 0 0 26.067 0 790 57.638 790 101.302 790 177.659 790 226.722 790 233.866 790 248.239 790 255.77 790 270.144 790 277.672 790 292.048 790 299.189 790 356.79 790 358.785 790 461.676 790 461.693 790 515.369 790 559.199 790 560.203 790 600 790 600 160.896"></polygon>
                </g>
                <g id="buildings-bg" transform="translate(1198.000000, 0.000000)">
                    <polygon id="Shape" points="560.203 134.116 560.203 84.169 552.834 84.169 552.834 74.81 548.698 74.81 548.698 84.169 531.785 84.169 531.785 65.141 529.485 65.141 529.485 84.169 527.448 84.169 527.448 65.141 525.148 65.141 525.148 84.169 515.369 84.169 515.369 121.759 461.693 121.759 461.693 91.981 437.254 80.99 429.1 80.99 429.1 59.414 397.528 48.418 376.146 62.162 376.146 76.866 365.957 76.866 356.79 87.862 356.79 105.592 320.889 105.592 320.889 79.47 317.925 79.47 317.925 105.592 311.858 105.592 311.858 67.518 308.893 67.518 308.893 105.592 299.189 105.592 299.189 136.926 288.316 136.926 288.316 120.325 288.314 120.325 262.957 98.285 237.598 120.325 237.598 136.926 226.722 136.926 226.722 43.697 222.943 43.697 222.943 30.456 202.191 24.991 181.44 30.456 181.44 43.697 177.659 43.697 177.659 82.171 170.062 82.171 170.062 71.259 161.066 71.259 161.066 60.442 117.894 60.442 117.894 71.259 108.899 71.259 108.899 82.171 101.302 82.171 101.302 145.233 57.638 145.233 57.638 26.067 28.856 0 0 26.067 0 790 57.638 790 101.302 790 177.659 790 226.722 790 233.866 790 248.239 790 255.77 790 270.144 790 277.672 790 292.048 790 299.189 790 356.79 790 358.785 790 461.676 790 461.693 790 515.369 790 559.199 790 560.203 790 600 790 600 160.896"></polygon>
                </g>
                <g id="buildings-bg" transform="translate(1797.000000, 1.000000)">
                    <polygon id="Shape" points="560.203 134.116 560.203 84.169 552.834 84.169 552.834 74.81 548.698 74.81 548.698 84.169 531.785 84.169 531.785 65.141 529.485 65.141 529.485 84.169 527.448 84.169 527.448 65.141 525.148 65.141 525.148 84.169 515.369 84.169 515.369 121.759 461.693 121.759 461.693 91.981 437.254 80.99 429.1 80.99 429.1 59.414 397.528 48.418 376.146 62.162 376.146 76.866 365.957 76.866 356.79 87.862 356.79 105.592 320.889 105.592 320.889 79.47 317.925 79.47 317.925 105.592 311.858 105.592 311.858 67.518 308.893 67.518 308.893 105.592 299.189 105.592 299.189 136.926 288.316 136.926 288.316 120.325 288.314 120.325 262.957 98.285 237.598 120.325 237.598 136.926 226.722 136.926 226.722 43.697 222.943 43.697 222.943 30.456 202.191 24.991 181.44 30.456 181.44 43.697 177.659 43.697 177.659 82.171 170.062 82.171 170.062 71.259 161.066 71.259 161.066 60.442 117.894 60.442 117.894 71.259 108.899 71.259 108.899 82.171 101.302 82.171 101.302 145.233 57.638 145.233 57.638 26.067 28.856 0 0 26.067 0 790 57.638 790 101.302 790 177.659 790 226.722 790 233.866 790 248.239 790 255.77 790 270.144 790 277.672 790 292.048 790 299.189 790 356.79 790 358.785 790 461.676 790 461.693 790 515.369 790 559.199 790 560.203 790 600 790 600 160.896"></polygon>
                </g>
            </g>
        </g>
    </g>
</svg>