<?xml version="1.0" encoding="UTF-8"?>
<svg width="979px" height="738px" viewBox="0 0 979 738" version="1.1" xmlns="http://www.w3.org/2000/svg" xmlns:xlink="http://www.w3.org/1999/xlink">
    <!-- Generator: Sketch 51.2 (57519) - http://www.bohemiancoding.com/sketch -->
    <title>Group 4</title>
    <desc>Created with Sketch.</desc>
    <defs></defs>
    <g id="Page-1" stroke="none" stroke-width="1" fill="none" fill-rule="evenodd">
        <g id="Artboard-2" transform="translate(-1927.000000, -1393.000000)">
            <g id="Group-4" transform="translate(1933.000000, 1399.000000)">
                <path d="M343.061503,712.652863 L414.696951,596.974952 L50,596.974952 C22.3857625,596.974952 1.17068606e-13,574.58919 1.13686838e-13,546.974952 L1.20792265e-13,50 C1.17410496e-13,22.3857625 22.3857625,5.07265313e-15 50,0 L916.807933,-1.42108547e-14 C944.42217,-1.92835078e-14 966.807933,22.3857625 966.807933,50 L966.807933,546.974952 C966.807933,574.58919 944.42217,596.974952 916.807933,596.974952 L526.818218,596.974952 L343.061503,712.652863 Z" id="Path-3" stroke="#E9E9E9" stroke-width="12" fill-rule="nonzero"></path>
                <text id="Thank-you-for-tourin" font-family="AvenirNext-DemiBold, Avenir Next" font-size="72" font-weight="500" fill="#E9E9E9">
                    <tspan x="125.91" y="108">Thank you for touring </tspan>
                    <tspan x="254.25" y="206">Montgomery!</tspan>
                </text>
                <g id="Group-5" transform="translate(208.000000, 390.000000)" fill="#E9E9E9">
                    <text id="montyautoroads@gmail" font-family="AvenirNext-DemiBold, Avenir Next" font-size="36" font-weight="500">
                        <tspan x="73.374" y="36">montyautoroads@gmail.com</tspan>
                    </text>
                    <text id="(908)---TSA---TEAM" font-family="AvenirNext-DemiBold, Avenir Next" font-size="36" font-weight="500">
                        <tspan x="158.112" y="118">(908) - TSA - TEAM</tspan>
                    </text>
                    <g id="phone-receiver" transform="translate(88.000000, 82.000000)" fill-rule="nonzero">
                        <path d="M44.9785508,35.5137097 C45.0739054,36.2447185 44.8512817,36.8803107 44.3116138,37.4204861 L37.975712,43.7126144 C37.6898819,44.0304105 37.3167926,44.3007708 36.8562884,44.5229943 C36.3957843,44.7455295 35.9432977,44.8885377 35.4988287,44.952019 C35.4670698,44.952019 35.3715596,44.9601976 35.2126872,44.9760874 C35.0541262,44.9918993 34.8476933,45 34.593622,45 C33.9900471,45 33.0133829,44.8967163 31.6636294,44.690071 C30.3138759,44.4834256 28.6624906,43.974874 26.7094736,43.1646499 C24.7559895,42.3542699 22.5408836,41.1385442 20.0637668,39.5179401 C17.58665,37.8974138 14.9505829,35.6726856 12.1557992,32.8442228 C9.93267574,30.65143 8.09065918,28.553976 6.6297495,26.5519387 C5.16883982,24.5497456 3.99376029,22.6985836 3.10451092,20.9983747 C2.2151837,19.2981657 1.54824667,17.7568549 1.10362199,16.374442 C0.658997303,14.9920291 0.357287694,13.8002939 0.198493163,12.7992363 C0.0396986327,11.7981787 -0.0238191796,11.0116335 0.00793972654,10.4396006 C0.0396986327,9.86756767 0.0555780858,9.54977161 0.0555780858,9.48621239 C0.119095898,9.04129791 0.262010976,8.58843852 0.484323319,8.12763424 C0.706635662,7.66682995 0.976586364,7.29341958 1.29417543,7.00740312 L7.6300772,0.667371726 C8.07470189,0.222457242 8.58284439,0 9.1545047,0 C9.56737048,0 9.9325979,0.119173523 10.250187,0.357520568 C10.567776,0.595867613 10.8377267,0.889828968 11.0600391,1.23940463 L16.1573435,10.9162947 C16.4431737,11.4247684 16.5225709,11.9809115 16.3955353,12.584724 C16.2684997,13.1885365 15.998549,13.6970102 15.5856832,14.1101451 L13.2514036,16.4459461 C13.1878858,16.5095053 13.1323077,16.612789 13.0846693,16.7557973 C13.037031,16.8988055 13.0132118,17.017979 13.0132118,17.1133178 C13.1402474,17.7806896 13.4260776,18.5434001 13.8707023,19.4014495 C14.2518091,20.16416 14.8393489,21.0937135 15.6333215,22.1901099 C16.4272942,23.2865063 17.5547354,24.5496678 19.0156451,25.97975 C20.4447958,27.4417677 21.7151521,28.5777328 22.8267138,29.3882685 C23.938042,30.1983369 24.8673014,30.7944382 25.6136356,31.1757935 C26.3599699,31.5571488 26.9316303,31.7875509 27.3285387,31.8667663 L27.9238625,31.9860177 C27.9873804,31.9860177 28.0908303,31.9621051 28.2335897,31.9145136 C28.3765048,31.8667663 28.4797212,31.8112298 28.5433169,31.7475927 L31.2586255,28.982767 C31.8305972,28.4743712 32.4972229,28.2201344 33.2595145,28.2201344 C33.7995715,28.2201344 34.2280833,28.3153953 34.5456723,28.5061508 L34.5932328,28.5061508 L43.7873583,33.9404634 C44.4545289,34.3539099 44.8514374,34.8781176 44.9785508,35.5137097 Z" id="Shape"></path>
                    </g>
                    <g id="close-envelope" transform="translate(0.000000, 9.000000)" fill-rule="nonzero">
                        <path d="M26.0056117,25.7068202 L19.5260007,20 L1,35.9798494 C1.67340067,36.6085031 2.58249158,37 3.58511036,37 L48.426113,37 C49.4249906,37 50.3303404,36.6085031 51,35.9798494 L32.4852226,20 L26.0056117,25.7068202 Z" id="Shape"></path>
                        <path d="M51,0.993666667 C50.3266497,0.377666667 49.4213676,0 48.415083,0 L3.57743528,0 C2.57863235,0 1.67335029,0.381333333 1,1.001 L25.9962592,22 L51,0.993666667 Z" id="Shape"></path>
                        <polygon id="Shape" points="0 3 0 34 18 18.6753731"></polygon>
                        <polygon id="Shape" points="34 18.6809048 52 34 52 3"></polygon>
                    </g>
                </g>
                <text id="Have-any-more-questi" font-family="AvenirNext-DemiBold, Avenir Next" font-size="36" font-weight="500" fill="#E9E9E9">
                    <tspan x="263.652" y="294">Have any more questions? </tspan>
                    <tspan x="376.044" y="343">Chat with us.</tspan>
                </text>
            </g>
        </g>
    </g>
</svg>