<?xml version="1.0" encoding="UTF-8"?>
<svg width="297px" height="141px" viewBox="0 0 297 141" version="1.1" xmlns="http://www.w3.org/2000/svg" xmlns:xlink="http://www.w3.org/1999/xlink">
    <!-- Generator: Sketch 51.2 (57519) - http://www.bohemiancoding.com/sketch -->
    <title>Group 27</title>
    <desc>Created with Sketch.</desc>
    <defs></defs>
    <g id="Page-1" stroke="none" stroke-width="1" fill="none" fill-rule="evenodd">
        <g id="Artboard" transform="translate(-20860.000000, -1043.000000)">
            <g id="Group-27" transform="translate(20860.000000, 1043.000000)">
                <g id="Group-13" transform="translate(0.000000, 84.000000)" fill="#D8D8D8" fill-rule="nonzero">
                    <g id="Group-12">
                        <polygon id="Rectangle-12" points="49.7672813 5.68434189e-14 68.3122831 5.68434189e-14 18.8208036 56.5187127 0 54.1639786"></polygon>
                    </g>
                    <g id="Group-12" transform="translate(262.500000, 28.500000) scale(-1, 1) translate(-262.500000, -28.500000) translate(228.000000, 0.000000)">
                        <polygon id="Rectangle-12" points="49.7672813 5.68434189e-14 68.3122831 5.68434189e-14 18.8208036 56.5187127 0 54.1639786"></polygon>
                    </g>
                </g>
                <g id="Group-15" transform="translate(61.000000, 0.000000)">
                    <g id="car-(3)" fill-rule="nonzero">
                        <g id="Group" transform="translate(1.000000, 26.000000)" fill="#6F6F6F">
                            <path d="M0.215631365,84.4046507 L0.215631365,95.8565959 C0.215631365,99.2330753 3.00814664,101.969959 6.45325866,101.969959 L21.8650204,101.969959 C25.3101324,101.969959 28.1026477,99.2330753 28.1026477,95.8565959 L28.1026477,84.4046507 L0.215631365,84.4046507 Z" id="Shape"></path>
                            <path d="M144.62164,84.4046507 L144.62164,95.8565959 C144.62164,99.2330753 147.414155,101.969959 150.859267,101.969959 L166.276375,101.969959 C169.721487,101.969959 172.514002,99.2330753 172.514002,95.8565959 L172.514002,84.4046507 L144.62164,84.4046507 Z" id="Shape"></path>
                            <path d="M172.602749,1.61907534 C172.514358,1.55934247 167.382688,0.491835616 167.271843,0.470178082 C163.472811,-0.326609589 159.624236,1.60300685 158.059216,5.08777397 L156.931161,7.59725342 L153.043737,7.59725342 L155.709012,12.5019863 L170.329888,10.7784658 C175.041344,10.2202603 176.556466,4.1935274 172.602749,1.61907534 Z" id="Shape"></path>
                        </g>
                        <path d="M173,60.4474628 L173,109 L2,109 L2,60.4474628 C2,53.6956876 10.1710517,48.907657 10.1710517,48.907657 C11.2851895,41.5408088 18.3421033,37.49304 18.3421033,37.49304 L32.7031634,10.7903193 C39.7657363,-1.85374229 52.0856251,0.110353133 52.0856251,0.110353133 L122.914375,0.110353133 C122.914375,0.110353133 135.294392,-1.85374229 142.356965,10.7903193 L156.657543,37.49304 C156.657543,37.49304 163.714457,41.5464195 164.828595,48.907657 C164.828948,48.9080077 173,53.6956876 173,60.4474628 Z" id="Shape" fill="#454545"></path>
                        <path d="M154,39.3013877 C149.292051,30.5090979 144.578457,21.3948143 139.85957,12.0482431 C136.339634,5.34398995 130.60245,1.45125662 122.828671,2.11894699 C47.0907808,2.0905036 50.3316195,2.0000682 50.3316195,2.0000682 C46.6419678,1.98876378 39.7605222,3.37483211 35.2222894,12.0143298 C30.4758808,21.37804 25.7351177,30.5039927 21,39.3017523 C65.2659408,42.8994767 109.734412,42.8994767 154,39.3013877 Z" id="Shape" fill="#168DE2"></path>
                        <path d="M126.677259,75.7152408 L121.944511,96.484063 C120.932051,100.882766 117.021747,104 112.540672,104 L64.4419495,104 C59.9608745,104 56.0505705,100.877307 55.03811,96.484063 L50.3053622,75.7152408 C48.6045873,68.1993038 54.2214352,61.0000035 61.857435,61.0000035 L115.125186,61.0000035 C122.761186,60.9941803 128.43933,68.1938446 126.677259,75.7152408 Z" id="Shape" fill="#6F6F6F"></path>
                        <path d="M50,61.3683244 L17.0147131,56.1012775 C12.5940121,55.3973394 8.38827964,58.4428126 8.03777158,62.7547412 C8.02647662,62.8585201 8.02064696,62.9622991 8.01518166,63.0657263 C7.78891813,66.5590322 10.1124004,69.7575354 13.6058218,70.7070251 C18.9082583,72.1479698 26.91857,73.2941119 31.4580503,68.9114729 L43.8719385,69.0588743 L50,61.3683244 Z" id="Shape" fill="#CACACA"></path>
                        <g id="Group" transform="translate(0.000000, 26.000000)" fill="#6F6F6F">
                            <path d="M43.8917442,67.8715804 C42.8309302,66.3120357 41.1369767,65.3217143 39.2752326,65.1686518 L14.2217442,63.1329911 C9.2044186,62.7224732 7.62976744,66.5804241 7.09918605,71.1821741 C6.67709302,74.8592009 9.48069767,78.1532188 13.1393023,78.2353929 L37.1968605,78.7771071 C39.5567442,78.8317723 40.6716279,77.813942 42.4793023,76.4515446 C45.1583721,74.43775 45.7751163,70.64575 43.8917442,67.8715804 Z" id="Shape"></path>
                            <path d="M17.5555814,7.67005357 L16.4515116,5.13641071 C14.9145349,1.61808929 11.1530233,-0.330107143 7.43476744,0.4690625 C7.32662791,0.490928571 2.30406977,1.57435714 2.2172093,1.63466518 C-1.65244186,4.23919643 -0.169534884,10.3186696 4.44174419,10.88225 L18.7517442,12.6223661 L21.3603488,7.67040625 L17.5555814,7.67005357 Z" id="Shape"></path>
                        </g>
                        <rect id="Rectangle-path" fill="#FFFFFF" x="63" y="79" width="49" height="10"></rect>
                        <circle id="Oval" fill="#E95353" cx="15" cy="63" r="5"></circle>
                        <path d="M128,61.3683244 L160.985287,56.1012775 C165.405988,55.3973394 169.61172,58.4428126 169.962228,62.7547412 C169.968058,62.8585201 169.979353,62.9622991 169.984818,63.0657263 C170.211082,66.5590322 167.8876,69.7575354 164.394178,70.7070251 C159.091742,72.1479698 151.08143,73.2941119 146.54195,68.9114729 L134.128062,69.0588743 L128,61.3683244 Z" id="Shape" fill="#CACACA"></path>
                        <path d="M163.457852,87.0287233 L137.084402,88.9766182 C135.12457,89.1230815 133.335494,90.0710435 132.224666,91.5630122 C130.110971,94.3957616 130.503892,97.5791456 135.221515,100.809776 C136.389629,101.610937 137.813693,102.029741 139.272275,101.998356 L164.597324,101.479997 C168.448685,101.401366 171.399999,98.2493672 170.955668,94.7308724 C170.403008,90.3271856 168.73952,86.6359046 163.457852,87.0287233 Z" id="Shape" fill="#6F6F6F"></path>
                        <circle id="Oval" fill="#E95353" cx="160" cy="63" r="5"></circle>
                        <g id="Group" transform="translate(70.000000, 63.000000)" fill="#FFFFFF">
                            <path d="M28.7188725,0.0228378378 C25.3170098,0.0228378378 22.5485784,2.85754054 22.5485784,6.34083784 C22.5485784,9.82413514 25.3170098,12.6644595 28.7188725,12.6644595 C32.1207353,12.6644595 34.8891667,9.82975676 34.8891667,6.34083784 C34.8891667,2.85191892 32.1207353,0.0228378378 28.7188725,0.0228378378 Z M28.7188725,11.3612973 C26.0142647,11.3612973 23.8157843,9.10983784 23.8157843,6.33521622 C23.8157843,3.56586486 26.0146078,1.31475676 28.7188725,1.31475676 C31.4234804,1.31475676 33.6219608,3.56621622 33.6219608,6.33521622 C33.6223039,9.10983784 31.4234804,11.3612973 28.7188725,11.3612973 Z" id="Shape"></path>
                            <path d="M21.3136275,0.0228378378 C17.9117647,0.0228378378 15.1433333,2.85754054 15.1433333,6.34083784 C15.1433333,9.82413514 17.9117647,12.6644595 21.3136275,12.6644595 C24.7154902,12.6644595 27.4839216,9.82975676 27.4839216,6.34083784 C27.4839216,2.85191892 24.7154902,0.0228378378 21.3136275,0.0228378378 Z M21.3136275,11.3612973 C18.6090196,11.3612973 16.4105392,9.10983784 16.4105392,6.33521622 C16.4105392,3.56586486 18.6093627,1.31475676 21.3136275,1.31475676 C24.0178922,1.31475676 26.2167157,3.56621622 26.2167157,6.33521622 C26.2167157,9.10983784 24.0178922,11.3612973 21.3136275,11.3612973 Z" id="Shape"></path>
                            <path d="M13.9080392,0.0228378378 C10.5061765,0.0228378378 7.7377451,2.85754054 7.7377451,6.34083784 C7.7377451,9.82413514 10.5061765,12.6644595 13.9080392,12.6644595 C17.309902,12.6644595 20.0783333,9.82975676 20.0783333,6.34083784 C20.0783333,2.85191892 17.309902,0.0228378378 13.9080392,0.0228378378 Z M13.9080392,11.3612973 C11.2034314,11.3612973 9.00495098,9.10983784 9.00495098,6.33521622 C9.00495098,3.56586486 11.2037745,1.31475676 13.9080392,1.31475676 C16.6126471,1.31475676 18.8111275,3.56621622 18.8111275,6.33521622 C18.8114706,9.10983784 16.6126471,11.3612973 13.9080392,11.3612973 Z" id="Shape"></path>
                            <path d="M6.50245098,0.0228378378 C3.10058824,0.0228378378 0.332156863,2.85754054 0.332156863,6.34083784 C0.332156863,9.82413514 3.10058824,12.6644595 6.50245098,12.6644595 C9.90431373,12.6644595 12.6727451,9.82975676 12.6727451,6.34083784 C12.6730882,2.85191892 9.90465686,0.0228378378 6.50245098,0.0228378378 Z M6.50245098,11.3612973 C3.79784314,11.3612973 1.59936275,9.10983784 1.59936275,6.33521622 C1.59936275,3.56586486 3.79818627,1.31475676 6.50245098,1.31475676 C9.20705882,1.31475676 11.4055392,3.56621622 11.4055392,6.33521622 C11.4058824,9.10983784 9.20705882,11.3612973 6.50245098,11.3612973 Z" id="Shape"></path>
                        </g>
                        <path d="M93.1698411,20.7090898 L93.1698411,8.51615677 C93.1698411,6.5668108 94.7603993,4.95451625 96.7326214,4.95451625 L97.0212392,4.95451625 C98.944305,4.8053879 100.58402,6.41803837 100.58402,8.31755625 L100.58402,20.2453327 C100.58402,22.586541 102.267273,24.6355431 104.528113,24.7789768 C106.984875,24.8782771 109.000636,22.9289311 109.000636,20.4884226 L109.000636,11.598024 C109.000636,9.64867802 110.591194,8.03638347 112.51426,8.03638347 L112.802878,8.03638347 C114.873061,8.03638347 116.556314,9.74263956 116.556314,11.7912858 L116.556314,18.6387328 C116.556314,20.9304689 118.288724,23.0289432 120.549564,23.1282435 C122.957522,23.2716772 125.022087,21.3226871 125.022087,18.8871614 L125.022087,11.012544 C125.022087,8.96389773 126.70534,7.40107536 128.726368,7.45090344 C128.775524,7.45090344 128.775524,7.45090344 128.775524,7.45090344 C128.82468,7.45090344 128.82468,7.45090344 128.873485,7.45090344 C130.894513,7.40107536 132.577766,8.96389773 132.577766,11.012544 L132.577766,19.7096808 C132.577766,22.050889 134.310175,24.0998912 136.571015,24.2433249 C139.027778,24.3426252 141,22.3879405 141,19.9527706 L141,13.5192527 C140.700498,12.944806 140.406262,12.3870874 140.106759,11.807302 C136.60402,5.26380631 130.894864,1.46441463 123.159062,2.11609483 C47.7855605,2.08833347 51.0105666,2.00006657 51.0105666,2.00006657 C47.3389402,1.98903321 40.4911128,3.34186579 35.9750508,11.7742019 C35.6481613,12.3981207 35.3268896,12.9999728 35,13.6295863 L35,18.638021 C35,20.9297571 36.7324094,23.0282314 39.0420545,23.1275316 C41.4500123,23.2709654 43.4710395,21.3219753 43.4710395,18.8864496 L43.4710395,11.0118321 C43.4710395,8.9631859 45.1542926,7.40036353 47.2244761,7.45019161 C47.2244761,7.45019161 47.2244761,7.45019161 47.2736325,7.45019161 C47.2736325,7.45019161 47.2736325,7.45019161 47.3227888,7.45019161 C49.3385493,7.40036353 51.0706076,8.9631859 51.0706076,11.0118321 L51.0706076,19.7089689 C51.0706076,22.0501772 52.7538606,24.0991794 55.0147005,24.2426131 C57.427925,24.3365746 59.4001471,22.4480901 59.4654548,20.0623924 L59.4654548,8.4499566 C59.4654548,6.00909214 61.4703306,4.05974616 63.9053244,4.1704357 C66.1770489,4.30853069 67.8820712,6.36821028 67.8820712,8.67097976 L67.8820712,19.7648476 C67.9473789,22.0014169 69.6362498,23.9781683 71.8535512,24.121602 C74.3050475,24.2209023 76.2825363,22.2662176 76.2825363,19.8310477 L76.3316926,10.3772358 C76.3316926,7.93637138 78.3035635,5.98702541 80.7606776,6.08668159 C83.0215175,6.2301153 84.7539269,8.28445617 84.7539269,10.6203257 L84.7539269,20.8528794 C84.8030832,23.1446156 86.6769926,25 88.9378325,25 C91.2959317,24.9996441 93.1698411,23.0502981 93.1698411,20.7090898 Z" id="Shape" fill="#209AE5"></path>
                    </g>
                    <g id="Group-14" transform="translate(38.000000, 59.000000)">
                        <rect id="Rectangle-13" fill="#FFFFFF" fill-rule="nonzero" x="0" y="0" width="100" height="42"></rect>
                        <text id="LIABILITY?" font-family="ArialNarrow-Bold, Arial Narrow" font-size="22" font-weight="bold" fill="#4647FF">
                            <tspan x="1.39697266" y="29">LIABILITY?</tspan>
                        </text>
                        <path d="M7.5,10.5 L89.5,10.5" id="Line-2" stroke="#FF0000" stroke-linecap="square" fill-rule="nonzero"></path>
                        <path d="M7.5,32.25 L89.5,32.25" id="Line-2" stroke="#FF0000" stroke-linecap="square" fill-rule="nonzero"></path>
                        <circle id="Oval-8" fill="#343434" fill-rule="nonzero" cx="11.5" cy="5.5" r="2.5"></circle>
                        <circle id="Oval-8" fill="#343434" fill-rule="nonzero" cx="86.5" cy="5.5" r="2.5"></circle>
                        <circle id="Oval-8" fill="#343434" fill-rule="nonzero" cx="11.5" cy="36.5" r="2.5"></circle>
                        <circle id="Oval-8" fill="#343434" fill-rule="nonzero" cx="86.5" cy="36.5" r="2.5"></circle>
                    </g>
                </g>
            </g>
        </g>
    </g>
</svg>