<?xml version="1.0" encoding="UTF-8"?>
<svg width="297px" height="137px" viewBox="0 0 297 137" version="1.1" xmlns="http://www.w3.org/2000/svg" xmlns:xlink="http://www.w3.org/1999/xlink">
    <!-- Generator: Sketch 51.2 (57519) - http://www.bohemiancoding.com/sketch -->
    <title>Group 26</title>
    <desc>Created with Sketch.</desc>
    <defs></defs>
    <g id="Page-1" stroke="none" stroke-width="1" fill="none" fill-rule="evenodd">
        <g id="Artboard" transform="translate(-21160.000000, -1047.000000)">
            <g id="Group-26" transform="translate(21160.000000, 1047.000000)">
                <g id="Group-13" transform="translate(0.000000, 80.000000)" fill="#D8D8D8" fill-rule="nonzero">
                    <g id="Group-12">
                        <polygon id="Rectangle-12" points="49.7672813 5.68434189e-14 68.3122831 5.68434189e-14 18.8208036 56.5187127 0 54.1639786"></polygon>
                    </g>
                    <g id="Group-12" transform="translate(262.500000, 28.500000) scale(-1, 1) translate(-262.500000, -28.500000) translate(228.000000, 0.000000)">
                        <polygon id="Rectangle-12" points="49.7672813 5.68434189e-14 68.3122831 5.68434189e-14 18.8208036 56.5187127 0 54.1639786"></polygon>
                    </g>
                </g>
                <g id="Group-16" transform="translate(57.000000, 0.000000)">
                    <g id="car-(1)" fill-rule="nonzero">
                        <path d="M173.952519,76.4662426 C173.692871,71.1784324 171.742129,66.1130552 168.536956,61.9105035 C161.308845,52.4312632 159.899838,44.9054883 159.899838,44.9054883 C154.224627,29.9267675 149.179481,19.946335 145.471397,13.6120126 C141.569913,6.96018476 134.822631,2.47959161 127.213418,1.49442796 C111.912006,-0.498142653 64.0894364,-0.498142653 48.7880236,1.49442796 C41.1841535,2.48533182 34.4368719,6.96592497 30.5353874,13.6120126 C26.8273031,19.946335 21.787856,29.9267675 16.1069469,44.9054883 C16.1069469,44.9054883 14.697939,52.4312632 7.46982811,61.9105035 C4.27035437,66.1130552 2.3139134,71.1784324 2.0599643,76.4662426 C1.51288742,87.9384123 4.81208871,90.4597998 7.76295589,116.420979 C7.99517864,118.463776 9.70799943,120 11.7527705,120 L164.265768,120 C166.310539,120 168.023359,118.458036 168.255582,116.420979 C169.084389,109.140239 171.543742,94.3728297 171.543742,94.3728297 C173.698214,87.0311003 174.168002,81.0472895 173.952519,76.4662426 Z" id="Shape" fill="#E95353"></path>
                        <path d="M157,44.2965057 C152.537553,33.0724542 147.986688,23.2713507 143.458194,15.458163 C140.02587,9.54973436 133.971188,5.42471963 127.272014,4.5221273 C111.983508,2.48424582 64.9618081,2.50101998 49.7833806,4.5221273 C43.0842062,5.42471963 37.0291694,9.55009126 33.5968456,15.458163 C29.0076306,23.3709249 24.3963998,33.3047941 20,44.2965057 C65.594938,47.9011648 111.399381,47.9011648 157,44.2965057 Z" id="Shape" fill="#168DE2"></path>
                        <path d="M151.213142,57.4408406 C149.454784,57.9708516 147.819078,58.7151444 146.450191,59.4539163 C143.957362,60.7924012 141.397828,62.0397904 138.727119,63.0142378 C134.298052,64.6311855 133.546724,67.0455651 133.546724,67.0455651 C133.413314,67.2115386 133.285284,67.3775121 133.162633,67.5486615 C129.801922,72.3508513 134.214133,78.7430741 140.173469,77.9294244 C148.792397,76.756913 155.892173,74.3532302 159.497827,72.9612611 C161.562095,72.1634841 163.175566,70.5040941 163.704185,68.4213164 C163.754393,68.2232524 163.798863,68.0251884 163.837595,67.8323002 C165.16237,60.9583747 158.151534,55.3584079 151.213142,57.4408406 Z" id="Shape" fill="#FFFFFF"></path>
                        <path d="M159.485379,97 L150.517417,97 C149.169522,97 148.49289,98.6290139 149.445273,99.586764 L158.413236,108.554727 C159.365619,109.50711 161,108.830478 161,107.482583 L161,98.5146206 C160.999665,97.6766312 160.323033,97 159.485379,97 Z" id="Shape" fill="#FFE21F"></path>
                        <path d="M170.073872,116.038315 C169.833742,118.066842 168.056704,119.593389 165.942673,119.593389 L147,119.593389 L147,130.198217 C147,133.95188 150.154104,137 154.051434,137 L165.948566,137 C169.840003,137 173,133.957564 173,130.198217 L173,97 C172.216998,101.597048 170.697032,110.785459 170.073872,116.038315 Z" id="Shape" fill="#454545"></path>
                        <path d="M176.868548,37.1795982 C176.313109,34.6894647 173.975753,33 171.426887,33 L166.806932,33 C163.847212,33 161.448658,35.4012897 161.448658,38.3635848 L161.448658,41.6594023 L159,41.6594023 L160.404704,45 L165.790893,45 C168.57847,45 171.338131,44.399588 173.870177,43.2381706 C176.15206,42.1931815 177.429356,39.6919426 176.868548,37.1795982 Z" id="Shape" fill="#ED6262"></path>
                        <circle id="Oval" fill="#FFBD49" cx="153.5" cy="65.5" r="6.5"></circle>
                        <circle id="Oval" fill="#FFDB6F" cx="140" cy="71" r="5"></circle>
                        <polygon id="Shape" fill="#6F6F6F" points="127 71 119.295007 84 56.7049933 84 49 71"></polygon>
                        <path d="M43.837655,67.5495416 C43.7207584,67.3784066 43.5927458,67.2124471 43.4536172,67.0464876 C43.4536172,67.0464876 42.7023949,64.6323112 38.273948,63.0154997 C35.6036125,62.0411344 33.049815,60.7938502 30.5519558,59.455478 C29.1778823,58.7167684 27.5477836,57.9725382 25.7896722,57.4425718 C18.8576289,55.3547941 11.8423954,60.9594647 13.1608892,67.8331564 C13.1999743,68.0312038 13.244438,68.2240757 13.2889018,68.422123 C13.8174468,70.5043803 15.4306923,72.1639756 17.4946713,72.9616854 C21.0998215,74.3535373 28.1986039,76.7570177 36.8220629,77.9294303 C42.7859437,78.7430115 47.197896,72.351327 43.837655,67.5495416 Z" id="Shape" fill="#FFFFFF"></path>
                        <path d="M26.4825834,97 L17.5146206,97 C16.6766312,97 16,97.6766312 16,98.5146206 L16,107.482583 C16,108.830478 17.6343813,109.50711 18.586764,108.554727 L27.5547268,99.586764 C28.5071095,98.6343813 27.8304783,97 26.4825834,97 Z" id="Shape" fill="#FFE21F"></path>
                        <path d="M151.865334,113.262404 C141.956207,96.4772687 130.561102,97.0018151 130.561102,97.0018151 L46.43249,97.0018151 C46.43249,97.0018151 35.0430814,96.4772687 25.128258,113.262404 L8,113.262404 L8.21004473,115.425417 C8.40335709,117.458775 10.1378282,119 12.214423,119 L164.785221,119 C166.862172,119 168.596287,117.458775 168.789955,115.425765 L169,113.262752 L151.865334,113.262404 Z" id="Shape" fill="#777777"></path>
                        <path d="M12.0570587,119.593033 C9.94262969,119.593033 8.16556648,118.060803 7.92580106,116.037959 C7.30300025,110.785104 5.77711987,101.591364 5,97 L5,130.198217 C5,133.95188 8.15414908,137 12.0515341,137 L23.9484659,137 C27.8399581,137 31,133.957564 31,130.198217 L31,119.593389 L12.0570587,119.593389 L12.0570587,119.593033 Z" id="Shape" fill="#454545"></path>
                        <path d="M15.5455694,41.6635405 L15.5455694,38.366148 C15.5455694,35.4020788 13.1466122,33 10.1925629,33 L5.57287931,33 C3.02432284,33 0.686565379,34.6906305 0.131115352,37.1815955 C-0.429703072,39.6894059 0.852985652,42.1975747 3.1295434,43.2373286 C5.66700519,44.3996595 8.42135017,45 11.2089792,45 L16.5952697,45 L18,41.6578059 L15.5455694,41.6578059 L15.5455694,41.6635405 Z" id="Shape" fill="#ED6262"></path>
                        <circle id="Oval" fill="#FFBD49" cx="22.5" cy="65.5" r="6.5"></circle>
                        <circle id="Oval" fill="#FFDB6F" cx="37" cy="71" r="5"></circle>
                        <g id="Group" transform="translate(50.000000, 102.000000)" fill="#6F6F6F">
                            <path d="M73.9544528,0.0102352941 L2.21511321,0.0102352941 C1.09160377,0.0102352941 0.184981132,0.908117647 0.184981132,2.00894118 C0.184981132,3.11505882 1.09160377,4.00764706 2.21511321,4.00764706 L73.948717,4.00764706 C75.0722264,4.00764706 75.9788491,3.10976471 75.9788491,2.00894118 C75.9845849,0.902823529 75.0722264,0.0102352941 73.9544528,0.0102352941 Z" id="Shape"></path>
                            <path d="M73.9544528,7.98882353 L2.21511321,7.98882353 C1.09160377,7.98882353 0.184981132,8.88670588 0.184981132,9.98752941 C0.184981132,11.0936471 1.09160377,11.9862353 2.21511321,11.9862353 L73.948717,11.9862353 C75.0722264,11.9862353 75.9788491,11.0883529 75.9788491,9.98752941 C75.9845849,8.88141176 75.0722264,7.98882353 73.9544528,7.98882353 Z" id="Shape"></path>
                        </g>
                        <path d="M149.556552,27.2648434 L149.556552,27.9537832 C149.556552,30.7265968 147.281119,32.9483298 144.454938,32.8324998 C141.848915,32.6672822 139.854715,30.3354041 139.854715,27.6727356 L139.854715,17.7831283 C139.854715,15.4512503 137.915555,13.6761379 135.585084,13.7368953 C135.530044,13.7368953 135.530044,13.7368953 135.475005,13.7368953 C135.475005,13.7368953 135.475005,13.7368953 135.419966,13.7368953 C133.089494,13.6818228 131.150334,15.4569352 131.150334,17.7831283 L131.150334,26.7301068 C131.150334,29.5029205 128.764823,31.7246534 125.993681,31.5537509 C123.387657,31.4436058 121.393458,29.0566552 121.393458,26.4490592 L121.393458,18.6706845 C121.393458,16.3388064 119.454298,14.3984764 117.068787,14.3984764 L116.738196,14.3984764 C114.517803,14.3984764 112.688721,16.2286614 112.688721,18.4503943 L112.688721,28.5659767 C112.688721,31.3387903 110.358249,33.5548383 107.532068,33.4446933 C104.926045,33.2794756 102.986885,30.9475976 102.986885,28.284929 L102.986885,14.7235821 C102.986885,12.5626066 101.102764,10.7324217 98.8823711,10.8976393 L98.55178,10.8976393 C96.2763475,10.8976393 94.4529477,12.7278242 94.4529477,14.9495572 L94.4529477,28.8139808 C94.4529477,31.4766493 92.2932753,33.6926974 89.577173,33.6926974 C86.9711494,33.6926974 84.811477,31.5867944 84.7564377,28.9795537 L84.7564377,17.3425479 C84.7564377,14.6798794 82.7622384,12.3536863 80.1562148,12.1827837 C77.3300338,12.0726386 75.0546013,14.2886867 75.0546013,17.0615003 L74.999562,27.8113052 C74.999562,30.5841188 72.7298109,32.8001669 69.8979485,32.6900218 C67.3416378,32.5301338 65.4024779,30.2810422 65.3250677,27.7342036 L65.3250677,15.1204597 C65.3250677,12.5018492 63.3582105,10.1589566 60.7411791,10.0047535 C57.9370139,9.88359393 55.6228762,12.093957 55.6228762,14.8724556 L55.6228762,28.0863126 C55.5458212,30.7930392 53.2760701,32.9483298 50.4935656,32.8381847 C47.887542,32.6729671 45.948382,30.341089 45.948382,27.6784205 L45.948382,17.7831283 C45.948382,15.4512503 43.9541827,13.6761379 41.6237108,13.7368953 C41.5686715,13.7368953 41.5686715,13.7368953 41.5686715,13.7368953 C41.5136322,13.7368953 41.5136322,13.7368953 41.5136322,13.7368953 C39.128121,13.6818228 37.188961,15.4569352 37.188961,17.7831283 L37.188961,26.7301068 C37.188961,29.5029205 34.8584892,31.7246534 32.0873476,31.5537509 C29.6741392,31.4599499 27.8780815,29.4425183 27.5698612,27.1049554 C25.0078691,32.4135932 22.4682477,38.1631665 20,44.3042879 C65.594938,47.8985707 111.405062,47.8985707 157,44.3042879 C154.542405,38.1468224 152.052142,32.4686657 149.556552,27.2648434 Z" id="Shape" fill="#3AA2EB"></path>
                    </g>
                    <g id="Group-14" transform="translate(39.000000, 60.000000)">
                        <rect id="Rectangle-13" fill="#FFFFFF" fill-rule="nonzero" x="0" y="0" width="100" height="42"></rect>
                        <text id="PRIVACY?" font-family="ArialNarrow-Bold, Arial Narrow" font-size="22" font-weight="bold" fill="#4647FF">
                            <tspan x="5.06542969" y="29">PRIVACY?</tspan>
                        </text>
                        <path d="M7.5,10.5 L89.5,10.5" id="Line-2" stroke="#FF0000" stroke-linecap="square" fill-rule="nonzero"></path>
                        <path d="M7.5,32.25 L89.5,32.25" id="Line-2" stroke="#FF0000" stroke-linecap="square" fill-rule="nonzero"></path>
                        <circle id="Oval-8" fill="#343434" fill-rule="nonzero" cx="11.5" cy="5.5" r="2.5"></circle>
                        <circle id="Oval-8" fill="#343434" fill-rule="nonzero" cx="86.5" cy="5.5" r="2.5"></circle>
                        <circle id="Oval-8" fill="#343434" fill-rule="nonzero" cx="11.5" cy="36.5" r="2.5"></circle>
                        <circle id="Oval-8" fill="#343434" fill-rule="nonzero" cx="86.5" cy="36.5" r="2.5"></circle>
                    </g>
                </g>
            </g>
        </g>
    </g>
</svg>