<?xml version="1.0" encoding="UTF-8"?>
<svg width="12178px" height="1285px" viewBox="0 0 12178 1285" version="1.1" xmlns="http://www.w3.org/2000/svg" xmlns:xlink="http://www.w3.org/1999/xlink">
    <!-- Generator: Sketch 51.2 (57519) - http://www.bohemiancoding.com/sketch -->
    <title>Artboard</title>
    <desc>Created with Sketch.</desc>
    <defs></defs>
    <g id="Artboard" stroke="none" stroke-width="1" fill="none" fill-rule="evenodd">
        <g id="Group-3" transform="translate(8526.000000, 977.000000)">
            <g id="traffic-light-(1)"></g>
            <path d="M40.8333333,87 L28.1666667,87 C26.3928385,87 25,88.3775326 25,90.1318681 L25,102.868132 C25,104.621652 26.3928385,106 28.1666667,106 L40.8333333,106 C42.6071615,106 44,104.621652 44,102.868132 L44,90.1318681 C44,88.3775326 42.6071615,87 40.8333333,87 Z" id="Shape" fill="#384949" fill-rule="nonzero"></path>
            <path d="M43,90.1318681 L43,102.868132 C43,104.621652 41.6804688,106 40,106 L34,106 L34,87 L40,87 C41.6804688,87 43,88.3775326 43,90.1318681 Z" id="Shape" fill="#293939" fill-rule="nonzero"></path>
            <g id="Group" transform="translate(0.000000, 12.000000)" fill="#384949" fill-rule="nonzero">
                <path d="M15.8333333,18.489426 C7.10355913,18.489426 0,11.5767559 0,3.081571 C0,1.37868213 1.41675358,0 3.16666667,0 L15.8333333,0 C17.5832464,0 19,1.37868213 19,3.081571 L19,15.407855 C19,17.1107439 17.5832464,18.489426 15.8333333,18.489426 Z" id="Shape"></path>
                <path d="M15.8333333,43.347432 C7.10355913,43.347432 0,36.434762 0,27.939577 C0,26.2366882 1.41675358,24.858006 3.16666667,24.858006 L15.8333333,24.858006 C17.5832464,24.858006 19,26.2366882 19,27.939577 L19,40.265861 C19,41.9687499 17.5832464,43.347432 15.8333333,43.347432 Z" id="Shape"></path>
                <path d="M15.8333333,68 C7.10355913,68 0,61.08733 0,52.592145 C0,50.8892561 1.41675358,49.510574 3.16666667,49.510574 L15.8333333,49.510574 C17.5832464,49.510574 19,50.8892561 19,52.592145 L19,64.918429 C19,66.6213179 17.5832464,68 15.8333333,68 Z" id="Shape"></path>
            </g>
            <path d="M45.7857143,0 L21.2142857,0 C16.1152343,0 12,4.144306 12,9.27937916 L12,83.7206208 C12,88.8548885 16.1152343,93 21.2142857,93 L45.7857143,93 C50.8847657,93 55,88.8548885 55,83.7206208 L55,9.27937916 C55,4.144306 50.8847657,0 45.7857143,0 Z" id="Shape" fill="#4A696F" fill-rule="nonzero"></path>
            <path d="M52.1666667,31 C50.4167536,31 49,29.5832464 49,27.8333333 L49,15.1666667 C49,13.4167536 50.4167536,12 52.1666667,12 L64.8333333,12 C66.5832464,12 68,13.4167536 68,15.1666667 C68,23.8964409 60.8964409,31 52.1666667,31 Z" id="Shape" fill="#293939" fill-rule="nonzero"></path>
            <path d="M52.1666667,57 C50.4167536,57 49,55.5832464 49,53.8333333 L49,41.1666667 C49,39.4167536 50.4167536,38 52.1666667,38 L64.8333333,38 C66.5832464,38 68,39.4167536 68,41.1666667 C68,49.8964409 60.8964409,57 52.1666667,57 Z" id="Shape" fill="#293939" fill-rule="nonzero"></path>
            <path d="M52.1666667,81 C50.4167536,81 49,79.5832464 49,77.8333333 L49,65.1666667 C49,63.4167536 50.4167536,62 52.1666667,62 L64.8333333,62 C66.5832464,62 68,63.4167536 68,65.1666667 C68,73.8964409 60.8964409,81 52.1666667,81 Z" id="Shape" fill="#293939" fill-rule="nonzero"></path>
            <path d="M56,9.27937916 L56,83.7206208 C56,88.8548885 51.7890626,93 46.5714286,93 L34,93 L34,0 L46.5714286,0 C51.7890626,0 56,4.144306 56,9.27937916 Z" id="Shape" fill="#3E5959" fill-rule="nonzero"></path>
            <path d="M34.5,12 C29.2428385,12 25,16.2428385 25,21.5 C25,26.7563369 29.2428385,31 34.5,31 C39.7571615,31 44,26.7563369 44,21.5 C44,16.2428385 39.7571615,12 34.5,12 Z" id="Shape" fill="#F86363" fill-rule="nonzero"></path>
            <path d="M34.5,38 C29.2428385,38 25,42.2428385 25,47.5 C25,52.7563369 29.2428385,57 34.5,57 C39.7571615,57 44,52.7563369 44,47.5 C44,42.2428385 39.7571615,38 34.5,38 Z" id="Shape" fill="#384949" fill-rule="nonzero"></path>
            <path d="M34.5,62 C29.2428385,62 25,66.2428385 25,71.5 C25,76.7563369 29.2428385,81 34.5,81 C39.7571615,81 44,76.7563369 44,71.5 C44,66.2428385 39.7571615,62 34.5,62 Z" id="Shape" fill="#384949" fill-rule="nonzero"></path>
            <path d="M43.9503098,71.5 C43.9503098,76.7563369 39.5063564,81 34,81 L34,62 C39.5063564,62 43.9503098,66.2428385 43.9503098,71.5 Z" id="Shape" fill="#4A696F" fill-rule="nonzero"></path>
            <path d="M44.1643391,47.5 C44.1643391,52.7563369 39.6247971,57 34,57 L34,38 C39.6247971,38 44.1643391,42.2428385 44.1643391,47.5 Z" id="Shape" fill="#4A696F" fill-rule="nonzero"></path>
            <path d="M34,31 L34,12 C39.8251176,12 44.5263301,16.2428385 44.5263301,21.5 C44.5263301,26.7563369 39.8251176,31 34,31 Z" id="Shape" fill="#B55959" fill-rule="nonzero"></path>
            <rect id="Rectangle" fill="#D8D8D8" fill-rule="nonzero" x="30" y="106" width="8" height="202"></rect>
        </g>
    </g>
</svg>