<?xml version="1.0" encoding="UTF-8"?>
<svg width="117px" height="590px" viewBox="0 0 117 590" version="1.1" xmlns="http://www.w3.org/2000/svg" xmlns:xlink="http://www.w3.org/1999/xlink">
    <!-- Generator: Sketch 51.2 (57519) - http://www.bohemiancoding.com/sketch -->
    <title>traffic-light</title>
    <desc>Created with Sketch.</desc>
    <defs></defs>
    <g id="Page-1" stroke="none" stroke-width="1" fill="none" fill-rule="evenodd">
        <g id="traffic-light" fill-rule="nonzero">
            <path d="M69.6666667,150 L48.3333333,150 C45.3458332,150 43,152.320055 43,155.274725 L43,176.725275 C43,179.678572 45.3458332,182 48.3333333,182 L69.6666667,182 C72.6541668,182 75,179.678572 75,176.725275 L75,155.274725 C75,152.320055 72.6541668,150 69.6666667,150 Z" id="Shape" fill="#384949"></path>
            <path d="M75,155.274725 L75,176.725275 C75,179.678572 72.6541668,182 69.6666667,182 L59,182 L59,150 L69.6666667,150 C72.6541668,150 75,152.320055 75,155.274725 Z" id="Shape" fill="#293939"></path>
            <g id="Group" transform="translate(0.000000, 21.000000)" fill="#384949">
                <path d="M26.6666667,32.0845921 C11.9638891,32.0845921 0,20.0890765 0,5.34743202 C0,2.39241898 2.38611129,0 5.33333333,0 L26.6666667,0 C29.6138887,0 32,2.39241898 32,5.34743202 L32,26.7371601 C32,29.6921732 29.6138887,32.0845921 26.6666667,32.0845921 Z" id="Shape"></path>
                <path d="M26.6666667,75.2205438 C11.9638891,75.2205438 0,63.2250281 0,48.4833837 C0,45.5283706 2.38611129,43.1359517 5.33333333,43.1359517 L26.6666667,43.1359517 C29.6138887,43.1359517 32,45.5283706 32,48.4833837 L32,69.8731118 C32,72.8281248 29.6138887,75.2205438 26.6666667,75.2205438 Z" id="Shape"></path>
                <path d="M26.6666667,118 C11.9638891,118 0,106.004484 0,91.2628399 C0,88.3078268 2.38611129,85.9154079 5.33333333,85.9154079 L26.6666667,85.9154079 C29.6138887,85.9154079 32,88.3078268 32,91.2628399 L32,112.652568 C32,115.607581 29.6138887,118 26.6666667,118 Z" id="Shape"></path>
            </g>
            <path d="M79.1428571,0 L36.8571429,0 C28.0820312,0 21,7.12998882 21,15.9645233 L21,144.035477 C21,152.868625 28.0820312,160 36.8571429,160 L79.1428571,160 C87.9179688,160 95,152.868625 95,144.035477 L95,15.9645233 C95,7.12998882 87.9179688,0 79.1428571,0 Z" id="Shape" fill="#4A696F"></path>
            <path d="M90.3333333,53 C87.3861113,53 85,50.6138887 85,47.6666667 L85,26.3333333 C85,23.3861113 87.3861113,21 90.3333333,21 L111.666667,21 C114.613889,21 117,23.3861113 117,26.3333333 C117,41.0361109 105.036111,53 90.3333333,53 Z" id="Shape" fill="#293939"></path>
            <path d="M90.3333333,96 C87.3861113,96 85,93.6138887 85,90.6666667 L85,69.3333333 C85,66.3861113 87.3861113,64 90.3333333,64 L111.666667,64 C114.613889,64 117,66.3861113 117,69.3333333 C117,84.0361109 105.036111,96 90.3333333,96 Z" id="Shape" fill="#293939"></path>
            <path d="M90.3333333,139 C87.3861113,139 85,136.613889 85,133.666667 L85,112.333333 C85,109.386111 87.3861113,107 90.3333333,107 L111.666667,107 C114.613889,107 117,109.386111 117,112.333333 C117,127.036111 105.036111,139 90.3333333,139 Z" id="Shape" fill="#293939"></path>
            <path d="M96,15.9645233 L96,144.035477 C96,152.868625 88.9179688,160 80.1428571,160 L59,160 L59,0 L80.1428571,0 C88.9179688,0 96,7.12998882 96,15.9645233 Z" id="Shape" fill="#3E5959"></path>
            <path d="M59,21 C50.1458332,21 43,28.1458332 43,37 C43,45.852778 50.1458332,53 59,53 C67.8541668,53 75,45.852778 75,37 C75,28.1458332 67.8541668,21 59,21 Z" id="Shape" fill="#E63950"></path>
            <path d="M59,64 C50.1458332,64 43,71.1458332 43,80 C43,88.852778 50.1458332,96 59,96 C67.8541668,96 75,88.852778 75,80 C75,71.1458332 67.8541668,64 59,64 Z" id="Shape" fill="#FDBF00"></path>
            <path d="M59,107 C50.1458332,107 43,114.145833 43,123 C43,131.852778 50.1458332,139 59,139 C67.8541668,139 75,131.852778 75,123 C75,114.145833 67.8541668,107 59,107 Z" id="Shape" fill="#A8D32A"></path>
            <path d="M75,123 C75,131.852778 67.8541668,139 59,139 L59,107 C67.8541668,107 75,114.145833 75,123 Z" id="Shape" fill="#93BF00"></path>
            <path d="M75,80 C75,88.852778 67.8541668,96 59,96 L59,64 C67.8541668,64 75,71.1458332 75,80 Z" id="Shape" fill="#FF9F00"></path>
            <path d="M59,53 L59,21 C67.8541668,21 75,28.1458332 75,37 C75,45.852778 67.8541668,53 59,53 Z" id="Shape" fill="#CC2E43"></path>
            <rect id="Rectangle" fill="#D8D8D8" x="49" y="182" width="19" height="408"></rect>
        </g>
    </g>
</svg>