<?xml version="1.0" encoding="UTF-8"?>
<svg width="297px" height="151px" viewBox="0 0 297 151" version="1.1" xmlns="http://www.w3.org/2000/svg" xmlns:xlink="http://www.w3.org/1999/xlink">
    <!-- Generator: Sketch 51.2 (57519) - http://www.bohemiancoding.com/sketch -->
    <title>Group 17</title>
    <desc>Created with Sketch.</desc>
    <defs></defs>
    <g id="Page-1" stroke="none" stroke-width="1" fill="none" fill-rule="evenodd">
        <g id="Artboard" transform="translate(-21754.000000, -1033.000000)">
            <g id="Group-17" transform="translate(21754.000000, 1033.000000)">
                <g id="Group-13" transform="translate(0.000000, 94.000000)" fill="#D8D8D8" fill-rule="nonzero">
                    <g id="Group-12">
                        <polygon id="Rectangle-12" points="49.7672813 5.68434189e-14 68.3122831 5.68434189e-14 18.8208036 56.5187127 0 54.1639786"></polygon>
                    </g>
                    <g id="Group-12" transform="translate(262.500000, 28.500000) scale(-1, 1) translate(-262.500000, -28.500000) translate(228.000000, 0.000000)">
                        <polygon id="Rectangle-12" points="49.7672813 5.68434189e-14 68.3122831 5.68434189e-14 18.8208036 56.5187127 0 54.1639786"></polygon>
                    </g>
                </g>
                <g id="car-(2)" transform="translate(63.000000, 0.000000)" fill-rule="nonzero">
                    <path d="M128.522196,117.000339 L128.522196,126.333305 C128.522196,130.066627 131.480109,132.999661 135.109826,132.999661 L146,132.999661 L146,117 L128.522196,117 L128.522196,117.000339 Z M25,133 L35.8901741,133 C39.5202321,133 42.4778043,130.066627 42.4778043,126.333644 L42.4778043,117.000677 L25,117.000677 C25,117.001016 25,133 25,133 Z" id="Shape" fill="#1E2E37"></path>
                    <path d="M140.398585,116.720014 L140.398585,138.887936 C140.398585,143.919807 144.41054,148 149.225225,148 L154.17336,148 C159.121494,148 163,143.920152 163,138.887936 L163,114 C163,114 140.398585,116.720014 140.398585,116.720014 Z M8,138.887936 C8,143.919807 12.0119549,148 16.8266403,148 L21.7747745,148 C26.7229088,148 30.6014148,143.920152 30.6014148,138.887936 L30.6014148,116.720014 L8,114 C8,114 8,138.887936 8,138.887936 Z" id="Shape" fill="#324D5B"></path>
                    <path d="M85.9618657,0 L86.3655945,0 C131.969187,0 143,19.3334825 143,56 L30,56 C30,19.3334825 41.1653896,0 85.9618657,0 Z" id="Shape" fill="#BF392B"></path>
                    <path d="M85.0986629,7 L85.5001698,7 C125.367569,7 135,24.2972009 135,57 L36,57 C36,24.297544 45.7662663,7 85.0986629,7 Z" id="Shape" fill="#85C6DC"></path>
                    <path d="M85.5,102 C112.792037,102 135,107.141112 135,113.5 C135,119.858888 112.792037,125 85.5,125 C58.2079631,125 36,119.858888 36,113.5 C35.9996603,107.140768 58.2079631,102 85.5,102 Z" id="Shape" fill="#85281E"></path>
                    <path d="M30.1001024,61.0798951 L86.1344272,53 L141.899898,61.0798951 C158.562393,61.0798951 172,74.6807613 172,91.648507 L172,98.2468657 C172,103.094598 169.849846,107 163.400068,107 L8.59993176,107 C2.28423959,106.865626 0,102.960223 0,98.1124915 L0,91.5141327 C0,74.6807613 13.4376066,61.0798951 30.1001024,61.0798951 Z" id="Shape" fill="#BF392B"></path>
                    <path d="M7.15327425,105 L164.846726,105 C167.12424,105 169,106.733341 169,108.999887 C169,113.399932 165.24848,117 160.55942,117 L11.4405799,117 C6.75117988,117 3,113.399932 3,108.999887 C3,106.733341 4.87576003,105 7.15327425,105 Z" id="Shape" fill="#E4E7E7"></path>
                    <path d="M144.78727,56.1659822 C144.78727,56.1659822 129.178278,62.3886023 120.969943,89.8492579 C120.969943,89.8492579 116.394799,105 105.899062,105 L67.1458089,105 C56.6500721,105 52.0749285,89.8492579 52.0749285,89.8492579 C43.8665927,62.3886023 28.3922141,56.4366354 28.3922141,56.4366354 C23.0097324,54.2720965 28.3922141,51.0256316 28.3922141,51.0256316 C50.1910258,38.5803914 86.5226064,40.0682972 86.5226064,40.0682972 C86.5226064,40.0682972 122.719574,38.4450648 144.78727,51.0256316 C144.78727,51.0256316 149.765912,53.8661166 144.78727,56.1659822 Z" id="Shape" fill="#E2574C"></path>
                    <path d="M57.2401485,87.8001363 C57.912223,89.9476554 61.40742,98 65.8436579,98 L77.673398,98 L77.673398,47 C57.2398072,47 43.9314349,50.757988 36,54.2474509 C42.1838364,58.9449359 51.4597616,68.742012 57.2401485,87.8001363 Z M93.8052342,47 L93.8052342,98 L104.425308,98 C108.996029,98 112.356743,89.9473146 113.028818,87.8001363 C118.675063,69.0108778 127.816164,59.0791985 134,54.2474509 C126.337531,50.757988 113.432267,47.1342625 93.8052342,47 Z" id="Shape" fill="#BF392B"></path>
                    <polygon id="Shape" fill="#E87970" points="83 40 88 40 88 104 83 104 83 40"></polygon>
                    <path d="M24.1090319,73 C17.3818679,73 12,78.3334086 12,85 C12,91.6665914 17.3818679,97 24.1090319,97 C30.8361959,97 36.2180638,91.6665914 36.2180638,85 C36.2180638,78.3337471 30.8365376,73 24.1090319,73 Z M147.890968,73 C141.163804,73 135.781936,78.3334086 135.781936,85 C135.781936,91.6665914 141.163804,97 147.890968,97 C154.618132,97 160,91.6665914 160,85 C160,78.3337471 154.618132,73 147.890968,73 Z" id="Shape" fill="#E0E3E4"></path>
                    <path d="M24.0100759,81 C21.7377561,81 20,82.7333898 20,85 C20,87.2666102 21.7377561,89 24.0100759,89 C26.2823957,89 28.0201519,87.2666102 28.0201519,85 C28.0201519,82.7333898 26.1490094,81 24.0100759,81 Z M146.989924,81 C144.717604,81 142.979848,82.7333898 142.979848,85 C142.979848,87.2666102 144.717604,89 146.989924,89 C149.262244,89 151,87.2666102 151,85 C151,82.7333898 149.262244,81 146.989924,81 Z" id="Shape" fill="#C0C8CB"></path>
                    <path d="M145.399646,54 L142.97635,54 C140.283684,54 138.129757,55.9566513 138.129757,58.5654094 L138.129757,60.7827047 C138.129757,62.0869181 140.822422,63 144.053484,63 C147.419231,63 149.977212,61.9564305 149.977212,60.7827047 L149.977212,58.5654094 C150.246581,56.0868077 148.092312,54 145.399646,54 Z M28.2698894,54 L25.846593,54 C23.1539274,54 21,55.9566513 21,58.5654094 L21,60.7827047 C21,62.0869181 23.6926656,63 26.9237276,63 C30.1547895,63 32.8474551,61.9564305 32.8474551,60.7827047 L32.8474551,58.5654094 C33.1168242,56.0868077 30.962555,54 28.2698894,54 Z" id="Shape" fill="#F4B459"></path>
                    <path d="M40,30 C46.7348855,26.6374948 66.2664639,18.0293995 85.7980424,18.0293995 C105.464373,18.0293995 125.265114,26.6374948 132,30 C126.34245,14.8011077 113.142184,7 86.0672052,7 L85.6629479,7 C58.9925687,7 45.7923025,14.8014492 40,30 Z" id="Shape" fill="#92D2E8"></path>
                    <path d="M147.890968,75.6667043 C153.138238,75.6667043 157.309066,79.7999774 157.309066,85 C157.309066,90.2000226 153.138238,94.3332957 147.890968,94.3332957 C142.643698,94.3332957 138.47287,90.2000226 138.47287,85 C138.47287,79.800316 142.643698,75.6667043 147.890968,75.6667043 Z M24.1090319,75.6667043 C29.3563018,75.6667043 33.5271299,79.7999774 33.5271299,85 C33.5271299,90.2000226 29.3563018,94.3332957 24.1090319,94.3332957 C18.861762,94.3332957 14.6909339,90.2000226 14.6909339,85 C14.6909339,79.800316 18.861762,75.6667043 24.1090319,75.6667043 Z M147.890968,73 C141.163804,73 135.781936,78.3334086 135.781936,85 C135.781936,91.6665914 141.163804,97 147.890968,97 C154.618132,97 160,91.6665914 160,85 C160,78.3337471 154.618132,73 147.890968,73 Z M24.1090319,73 C17.3818679,73 12,78.3334086 12,85 C12,91.6665914 17.3818679,97 24.1090319,97 C30.8361959,97 36.2180638,91.6665914 36.2180638,85 C36.2180638,78.3337471 30.8365376,73 24.1090319,73 Z" id="Shape" fill="#CCD0D2"></path>
                </g>
                <g id="Group-14" transform="translate(99.000000, 73.000000)">
                    <rect id="Rectangle-13" fill="#FFFFFF" fill-rule="nonzero" x="0" y="0" width="100" height="42"></rect>
                    <text id="HACKING?" font-family="ArialNarrow-Bold, Arial Narrow" font-size="20" font-weight="bold" fill="#4647FF">
                        <tspan x="9" y="29">HACKING?</tspan>
                    </text>
                    <path d="M7.5,10.5 L89.5,10.5" id="Line-2" stroke="#FF0000" stroke-linecap="square" fill-rule="nonzero"></path>
                    <path d="M7.5,32.25 L89.5,32.25" id="Line-2" stroke="#FF0000" stroke-linecap="square" fill-rule="nonzero"></path>
                    <circle id="Oval-8" fill="#343434" fill-rule="nonzero" cx="11.5" cy="5.5" r="2.5"></circle>
                    <circle id="Oval-8" fill="#343434" fill-rule="nonzero" cx="86.5" cy="5.5" r="2.5"></circle>
                    <circle id="Oval-8" fill="#343434" fill-rule="nonzero" cx="11.5" cy="36.5" r="2.5"></circle>
                    <circle id="Oval-8" fill="#343434" fill-rule="nonzero" cx="86.5" cy="36.5" r="2.5"></circle>
                </g>
            </g>
        </g>
    </g>
</svg>
